<svg id="cup-of-hot-chocolate" xmlns="http://www.w3.org/2000/svg" width="18.299" height="19" viewBox="0 0 18.299 19">
  <g id="Group_22" data-name="Group 22">
    <path id="Path_29" data-name="Path 29" d="M14.665,26.653c3.145-.126,4.543-1.558,4.543-3.31,0-1.522-1.056-2.8-3.395-3.2.01-.566.011-1.112.011-1.621H.909c0,3.332,0,8.173,3,10.485-1.817.139-3,.36-3,.61,0,.422,3.339.763,7.458.763s7.457-.341,7.457-.763c0-.249-1.181-.471-3-.61A6.3,6.3,0,0,0,14.665,26.653ZM15.758,21.6c1.312.3,1.547.948,1.532,1.781-.017.946-.291,1.586-2.083,1.807A17.244,17.244,0,0,0,15.758,21.6ZM2.709,19.684H5.041c-1.045,3.084.718,7.964.718,7.964C1.947,24.726,2.709,19.684,2.709,19.684Z" transform="translate(-0.909 -11.384)"/>
    <path id="Path_30" data-name="Path 30" d="M22.006,5.132C22.3,2.446,28.233,3.79,27,.3c-.189-.533-1.043-.3-.852.235.542,1.529-1.517,1.715-2.566,2.066a3.082,3.082,0,0,0-2.457,2.529C21.06,5.7,21.944,5.692,22.006,5.132Z" transform="translate(-13.328 0)"/>
    <path id="Path_31" data-name="Path 31" d="M30.2,4.661a3.086,3.086,0,0,0-2.574,1.984.442.442,0,0,0,.852.235c.4-1.343,2.162-1.365,3.288-1.692A2.143,2.143,0,0,0,33.5,2.713c-.072-.557-.956-.564-.884,0C32.822,4.268,31.391,4.381,30.2,4.661Z" transform="translate(-17.316 -1.409)"/>
  </g>
</svg>
