<svg xmlns="http://www.w3.org/2000/svg" width="37.031" height="52.667" viewBox="0 0 37.031 52.667">
  <g id="Group_28" data-name="Group 28" transform="translate(-1094.969 -1491.333)">
    <path id="Path_28" data-name="Path 28" d="M257.172,378.5H251l5.143,12.961h3.086Z" transform="translate(861.97 1151.768)" fill="#c5c6c8"/>
    <g id="Group_45" data-name="Group 45" transform="translate(1105.77 1517.152)">
      <path id="Path_29" data-name="Path 29" d="M183.057,378.5,181,391.461h12.344L191.286,378.5Z" transform="translate(-181 -365.385)" fill="#e2e3e3"/>
      <path id="Path_30" data-name="Path 30" d="M266.029,251,256,267.2a13.115,13.115,0,0,0,13.115-13.115V251Z" transform="translate(-248.285 -251)" fill="#e2e3e3"/>
    </g>
    <path id="Path_31" data-name="Path 31" d="M151.645,254.086V251H128.5v3.086A13.115,13.115,0,0,0,141.615,267.2C147.154,267.2,151.645,261.329,151.645,254.086Z" transform="translate(971.869 1266.152)" fill="#fff"/>
    <path id="Path_32" data-name="Path 32" d="M368.5,27.5V50.49h3.086a3.1,3.1,0,0,0,3.086-3.086V28.529Z" transform="translate(756.557 1466.662)" fill="#e2e3e3"/>
    <path id="Path_33" data-name="Path 33" d="M115.9,38.433V17.5L83.5,19.557V38.433a3.1,3.1,0,0,0,3.086,3.086h26.23A3.1,3.1,0,0,0,115.9,38.433Z" transform="translate(1012.24 1475.634)" fill="#fff"/>
    <path id="Path_34" data-name="Path 34" d="M371.586,7.5H368.5l3.086,3.086h3.086A3.1,3.1,0,0,0,371.586,7.5Z" transform="translate(756.557 1484.605)" fill="#a4a6aa"/>
    <g id="Group_46" data-name="Group 46" transform="translate(1095.74 1492.105)">
      <path id="Path_35" data-name="Path 35" d="M112.816,7.5H86.586A3.1,3.1,0,0,0,83.5,10.586h32.4A3.1,3.1,0,0,0,112.816,7.5Z" transform="translate(-83.5 -7.5)" fill="#c5c6c8"/>
      <path id="Path_36" data-name="Path 36" d="M341.586,236.143h3.086v-3.086L338.5,231Z" transform="translate(-312.27 -208.01)" fill="#c5c6c8"/>
      <path id="Path_37" data-name="Path 37" d="M113.5,233.057v3.086h26.23V231Z" transform="translate(-110.414 -208.01)" fill="#c5c6c8"/>
    </g>
    <path id="Path_38" data-name="Path 38" d="M341.586,221H338.5l3.086,3.086h3.086A3.086,3.086,0,0,0,341.586,221Z" transform="translate(783.471 1293.066)" fill="#f76549"/>
    <path id="Path_39" data-name="Path 39" d="M136.645,221H116.586a3.086,3.086,0,0,0-3.086,3.086h26.23A3.086,3.086,0,0,0,136.645,221Z" transform="translate(985.326 1293.066)" fill="#f79e8c"/>
    <path id="Path_40" data-name="Path 40" d="M109.174,0H79.857A3.862,3.862,0,0,0,76,3.857V22.733a3.864,3.864,0,0,0,3.086,3.78V28.9a.771.771,0,0,0,.771.771h.793a13.9,13.9,0,0,0,7.094,11.349L86.039,51.774a.771.771,0,0,0,.762.892h15.43a.771.771,0,0,0,.762-.892l-1.706-10.749a13.9,13.9,0,0,0,7.094-11.349h.793a.771.771,0,0,0,.771-.771V26.513a3.864,3.864,0,0,0,3.086-3.78V3.857A3.862,3.862,0,0,0,109.174,0ZM79.857,1.543h29.316a2.318,2.318,0,0,1,2.182,1.543H77.676A2.318,2.318,0,0,1,79.857,1.543Zm21.469,49.581H87.7L89.2,41.731a13.878,13.878,0,0,0,10.641,0ZM87.572,28.133a.771.771,0,0,0,0,1.543h19.262a12.343,12.343,0,0,1-24.638,0h2.29a.771.771,0,0,0,0-1.543H80.629V26.59H108.4v1.543Zm-6.811-3.086A2.318,2.318,0,0,1,82.943,23.5h23.145a2.318,2.318,0,0,1,2.182,1.543Zm29.083-.1a3.863,3.863,0,0,0-3.757-2.986H82.943a3.863,3.863,0,0,0-3.757,2.986,2.318,2.318,0,0,1-1.643-2.215V4.629h33.945v18.1A2.318,2.318,0,0,1,109.845,24.948Z" transform="translate(1018.969 1491.333)"/>
    <path id="Path_41" data-name="Path 41" d="M121.4,70h-4.629a.771.771,0,0,0,0,1.543H121.4a.771.771,0,0,0,0-1.543Z" transform="translate(983.083 1428.534)"/>
  </g>
</svg>
