<svg id="Livello_1" data-name="Livello 1" xmlns="http://www.w3.org/2000/svg" xmlns:xlink="http://www.w3.org/1999/xlink" viewBox="0 0 254.71 376.64"><defs><style>.cls-1{fill:url(#Sfumatura_senza_nome_15);}.cls-2{fill:url(#Sfumatura_senza_nome_15-2);}.cls-3{fill:none;stroke:#4d4d4d;stroke-linecap:round;stroke-linejoin:round;stroke-width:13px;}.cls-4{fill:url(#Sfumatura_senza_nome_5);}.cls-5{fill:#db8000;}.cls-6{fill:url(#Sfumatura_senza_nome_23);}.cls-7{fill:url(#Sfumatura_senza_nome_23-2);}.cls-8{fill:#764c20;}.cls-9{fill:url(#Sfumatura_senza_nome_22);}</style><linearGradient id="Sfumatura_senza_nome_15" x1="1014.76" y1="553.2" x2="1001.56" y2="501.06" gradientUnits="userSpaceOnUse"><stop offset="0" stop-color="#e4eaea"/><stop offset="0.49" stop-color="#e2eaea"/><stop offset="0.67" stop-color="#dbe8e8"/><stop offset="0.79" stop-color="#d0e5e6"/><stop offset="0.89" stop-color="#bfe1e3"/><stop offset="0.98" stop-color="#a9dbdf"/><stop offset="1" stop-color="#a3dade"/></linearGradient><linearGradient id="Sfumatura_senza_nome_15-2" x1="1021.93" y1="551.38" x2="1008.73" y2="499.24" xlink:href="#Sfumatura_senza_nome_15"/><linearGradient id="Sfumatura_senza_nome_5" x1="1025.37" y1="473.74" x2="949.92" y2="623" gradientUnits="userSpaceOnUse"><stop offset="0" stop-color="#118fa8"/><stop offset="0.2" stop-color="#108aa4"/><stop offset="0.45" stop-color="#0f7b99"/><stop offset="0.71" stop-color="#0c6386"/><stop offset="1" stop-color="#08406b"/><stop offset="1" stop-color="#08406b"/></linearGradient><linearGradient id="Sfumatura_senza_nome_23" x1="870" y1="671.5" x2="983" y2="671.5" gradientUnits="userSpaceOnUse"><stop offset="0" stop-color="#fabf1e"/><stop offset="0.28" stop-color="#f4b218"/><stop offset="0.78" stop-color="#e39108"/><stop offset="1" stop-color="#db8000"/></linearGradient><linearGradient id="Sfumatura_senza_nome_23-2" x1="72.36" y1="320.53" x2="114.44" y2="320.53" xlink:href="#Sfumatura_senza_nome_23"/><linearGradient id="Sfumatura_senza_nome_22" x1="832.71" y1="468.68" x2="1087" y2="468.68" gradientUnits="userSpaceOnUse"><stop offset="0.06" stop-color="#6e180e"/><stop offset="0.08" stop-color="#73180d"/><stop offset="0.15" stop-color="#89170a"/><stop offset="0.25" stop-color="#9a1707"/><stop offset="0.36" stop-color="#a51605"/><stop offset="0.52" stop-color="#ac1604"/><stop offset="0.97" stop-color="#ae1604"/></linearGradient></defs><title>logo</title><path class="cls-1" d="M1069.25,492.4C993.59,497.63,953,525,953,525l7-31,52.78-8.71L925,494l28,79s121,42,128-27C1083.69,519.5,1077.91,502.59,1069.25,492.4Z" transform="translate(-832.71 -351.36)"/><path class="cls-2" d="M953,525s40.59-27.37,116.25-32.6A52.6,52.6,0,0,0,1056,481l-43.22,4.29L960,494Z" transform="translate(-832.71 -351.36)"/><path class="cls-3" d="M1055,531s-19-17-32,5" transform="translate(-832.71 -351.36)"/><path class="cls-4" d="M997.23,562.8c-.84.25-1.69.47-2.56.64h0a29,29,0,0,1-32.34-39.8L962,524a28.27,28.27,0,0,1,14.91-15.36l-.13-.29c27.74-15.45,63.58-19.94,86.28-21h0a10.27,10.27,0,0,0,3.9-16.23A102,102,0,0,0,888,538q0,3.15.2,6.26h0c.15,62.45,58.74,132.64,86.95,169.68a18.62,18.62,0,0,0,29.87-.35c52.77-72.49,74-104.42,82.08-140.27a12.54,12.54,0,0,0-9.16-15C1048.92,551.24,1007.81,560.24,997.23,562.8Z" transform="translate(-832.71 -351.36)"/><rect class="cls-5" x="86.38" y="283.9" width="14.03" height="23.38"/><rect class="cls-5" x="894.94" y="651.63" width="14.03" height="23.38" transform="matrix(0.33, -0.94, 0.94, 0.33, -855.87, 942.56)"/><rect class="cls-5" x="945.59" y="653.97" width="14.03" height="23.38" transform="translate(-273.82 1407.7) rotate(-105.14)"/><rect class="cls-5" x="934.68" y="679.68" width="14.03" height="23.38" transform="translate(-1053.83 452.51) rotate(-41.81)"/><rect class="cls-5" x="904.29" y="678.9" width="14.03" height="23.38" transform="translate(-129.79 -785.04) rotate(42.34)"/><path class="cls-6" d="M926.5,615A56.5,56.5,0,1,0,983,671.5,56.51,56.51,0,0,0,926.5,615Zm-.39,88.84a31.95,31.95,0,1,1,31.95-32A31.94,31.94,0,0,1,926.11,703.84Z" transform="translate(-832.71 -351.36)"/><circle class="cls-7" cx="93.4" cy="320.53" r="21.04"/><circle class="cls-8" cx="93.4" cy="321.53" r="5.46"/><path class="cls-9" d="M883.48,575.53A114.52,114.52,0,0,1,1056,442.89L1087,380c-28-19.9-72.08-33.49-111-27-84,14-137,80-143,160-2.11,28.08,7.87,56.71,13,73Z" transform="translate(-832.71 -351.36)"/></svg>