<svg id="Livello_1" data-name="Livello 1" xmlns="http://www.w3.org/2000/svg" xmlns:xlink="http://www.w3.org/1999/xlink" viewBox="0 0 957.51 191.45"><defs><style>.cls-1{fill:#333;}.cls-2{fill:url(#Sfumatura_senza_nome_23);}.cls-3{fill:url(#Sfumatura_senza_nome_23-2);}</style><linearGradient id="Sfumatura_senza_nome_23" x1="506.55" y1="536.32" x2="761.58" y2="536.32" gradientUnits="userSpaceOnUse"><stop offset="0" stop-color="#fabf1e"/><stop offset="0.28" stop-color="#f4b218"/><stop offset="0.78" stop-color="#e39108"/><stop offset="1" stop-color="#db8000"/></linearGradient><linearGradient id="Sfumatura_senza_nome_23-2" x1="753.39" y1="561.76" x2="890.07" y2="561.76" xlink:href="#Sfumatura_senza_nome_23"/></defs><title>solo_lettering_v1</title><path class="cls-1" d="M1074.4,483.81l-38.8,22.28c-9.72-13-23.24-18.33-38.87-18.64a48.35,48.35,0,0,0-29.08,8.5c-17,11.8-24.32,35.06-17.76,56.88,6.08,20.24,23.32,32.79,45.88,33.41S1033.5,579,1039.2,563H997V523.61h89.47c6.49,56.26-21.25,95.28-68.59,104.82-41.56,8.38-83.84-9.78-104.07-45.19-20-35-14.52-81.46,13.1-111.51,37.17-40.47,106.4-38.72,141.38,3.62C1070.33,477.88,1072.12,480.67,1074.4,483.81Z" transform="translate(-506.55 -439)"/><path class="cls-1" d="M1421.94,508.56v-61.8h42.12v179h-42c-.15-3-.3-6-.45-9.06-.46-.11-1-.44-1.21-.28-28.1,22.4-66.19,16.11-84.57-15-15.31-25.9-15-52.78-.12-78.94C1352.24,493.53,1394.39,483.23,1421.94,508.56ZM1368,561.93c0,16.52,10.75,28,26.53,28.12,16,.16,27.29-11.62,27.18-28.26-.1-16.32-11.28-27.83-27-27.78S1368.06,545.46,1368,561.93Z" transform="translate(-506.55 -439)"/><path class="cls-1" d="M1264.1,625.94c-.23-3.36-.43-6.33-.65-9.58-28.67,19.52-58.25,17.27-79-5.75a65.89,65.89,0,0,1-16.45-36c-3.2-23.71,1.5-45.25,18.37-63.21,18.75-20,55-24.55,77-3,.26-3.89.46-7,.69-10.39h42V625.94Zm-54-63.73c.06,16.41,11.06,27.82,26.84,27.83s26.78-11.46,26.85-27.85c.07-16.7-11.23-28.4-27.2-28.18C1220.79,534.23,1210,545.72,1210.06,562.21Z" transform="translate(-506.55 -439)"/><path class="cls-2" d="M506.55,446.34c16.05,0,31.41-.15,46.76.26,1.44,0,3.52,3.44,4.06,5.6,8.17,32.66,16.13,65.37,24.15,98.07.53,2.16,1.14,4.29,2.21,8.3,1.32-4,2.2-6.29,2.88-8.69,9.1-32.18,18.34-64.33,27.1-96.6,1.54-5.7,4.06-7.43,9.66-7.09a210.73,210.73,0,0,0,22.76,0c4.62-.23,6.58,1.32,7.83,5.85,9.11,32.89,18.51,65.69,27.84,98.51.6,2.11,1.29,4.18,2.57,8.27,2.6-10.28,4.75-18.63,6.82-27,6.59-26.63,13.26-53.25,19.62-79.94,1-4.33,2.8-5.75,7.17-5.68,14.23.24,28.46.09,43.6.09-3.5,12.64-6.7,24.21-9.92,35.78-12.72,45.78-25.58,91.53-38,137.39-1.57,5.77-4.09,7.19-9.61,7-11.83-.4-23.67-.33-35.5,0-4.43.12-6.06-1.44-7.21-5.63-8.09-29.23-16.48-58.38-24.78-87.55-.59-2.08-1.25-4.15-2.44-8-9.85,34.68-19.22,67.65-28.74,101.11-15.27,0-30.42.19-45.55-.26-1.64-.05-4-3.52-4.63-5.79C546,587.91,537,555.47,527.91,523q-9.61-34.45-19.25-68.92C508,451.81,507.4,449.49,506.55,446.34Z" transform="translate(-506.55 -439)"/><path class="cls-3" d="M803.41,583.46c5.22,6.62,11.11,9.07,17.82,9,12.29-.13,23.24-3.62,31.43-13.61,1.07-1.31,3.85-2.48,5.31-2,10.62,3.36,21.1,7.15,32.1,11a49,49,0,0,1-16.3,22.72c-20.77,16.4-44.36,22.72-70.34,17-27.81-6.18-47.6-31-49.84-61C751.4,536.9,767,511,793.46,500c42.74-17.62,84.52,4.45,93.48,49.38,1.93,9.65,1.93,9.65-7.48,12.33L811.2,581.23Zm-8.21-29.2,45.52-13c-6.27-10.24-16.66-13.8-28.08-10.11S794.59,543.44,795.2,554.26Z" transform="translate(-506.55 -439)"/><path class="cls-1" d="M1148.48,439V626h-41.84V439Z" transform="translate(-506.55 -439)"/></svg>