<svg xmlns="http://www.w3.org/2000/svg" xmlns:xlink="http://www.w3.org/1999/xlink" viewBox="0 0 1296.35 376.64"><defs><style>.cls-1{fill:url(#linear-gradient);}.cls-2{fill:url(#linear-gradient-2);}.cls-3{fill:none;stroke:#4d4d4d;stroke-linecap:round;stroke-linejoin:round;stroke-width:13px;}.cls-4{fill:url(#linear-gradient-3);}.cls-5{fill:#db8000;}.cls-6{fill:url(#linear-gradient-4);}.cls-7{fill:url(#linear-gradient-5);}.cls-8{fill:#764c20;}.cls-9{fill:url(#linear-gradient-6);}.cls-10{fill:#333;}.cls-11{fill:url(#linear-gradient-7);}.cls-12{fill:url(#linear-gradient-8);}</style><linearGradient id="linear-gradient" x1="494.76" y1="-176.2" x2="481.56" y2="-124.06" gradientTransform="matrix(1, 0, 0, -1, -312.71, 25.63)" gradientUnits="userSpaceOnUse"><stop offset="0" stop-color="#e4eaea"/><stop offset="0.49" stop-color="#e2eaea"/><stop offset="0.67" stop-color="#dbe8e8"/><stop offset="0.79" stop-color="#d0e5e6"/><stop offset="0.89" stop-color="#bfe1e3"/><stop offset="0.98" stop-color="#a9dbdf"/><stop offset="1" stop-color="#a3dade"/></linearGradient><linearGradient id="linear-gradient-2" x1="501.93" y1="-174.38" x2="488.73" y2="-122.24" xlink:href="#linear-gradient"/><linearGradient id="linear-gradient-3" x1="505.4" y1="-96.76" x2="429.95" y2="-246.02" gradientTransform="matrix(1, 0, 0, -1, -312.71, 25.63)" gradientUnits="userSpaceOnUse"><stop offset="0" stop-color="#118fa8"/><stop offset="0.2" stop-color="#108aa4"/><stop offset="0.45" stop-color="#0f7b99"/><stop offset="0.71" stop-color="#0c6386"/><stop offset="1" stop-color="#08406b"/></linearGradient><linearGradient id="linear-gradient-4" x1="350" y1="-294.5" x2="463" y2="-294.5" gradientTransform="matrix(1, 0, 0, -1, -312.71, 25.63)" gradientUnits="userSpaceOnUse"><stop offset="0" stop-color="#fabf1e"/><stop offset="0.28" stop-color="#f4b218"/><stop offset="0.78" stop-color="#e39108"/><stop offset="1" stop-color="#db8000"/></linearGradient><linearGradient id="linear-gradient-5" x1="72.36" y1="55.47" x2="114.44" y2="55.47" gradientTransform="matrix(1, 0, 0, -1, 0, 375.99)" xlink:href="#linear-gradient-4"/><linearGradient id="linear-gradient-6" x1="312.71" y1="-91.68" x2="567" y2="-91.68" gradientTransform="matrix(1, 0, 0, -1, -312.71, 25.63)" gradientUnits="userSpaceOnUse"><stop offset="0.06" stop-color="#6e180e"/><stop offset="0.08" stop-color="#73180d"/><stop offset="0.15" stop-color="#89170a"/><stop offset="0.25" stop-color="#9a1707"/><stop offset="0.36" stop-color="#a51605"/><stop offset="0.52" stop-color="#ac1604"/><stop offset="0.97" stop-color="#ae1604"/></linearGradient><linearGradient id="linear-gradient-7" x1="651.55" y1="-256.32" x2="906.58" y2="-256.32" xlink:href="#linear-gradient-4"/><linearGradient id="linear-gradient-8" x1="898.38" y1="-281.79" x2="1035.07" y2="-281.79" xlink:href="#linear-gradient-4"/></defs><title>Asset 1</title><g id="Layer_2" data-name="Layer 2"><g id="Livello_1" data-name="Livello 1"><path class="cls-1" d="M236.54,141c-75.66,5.23-116.25,32.6-116.25,32.6l7-31,52.78-8.71-87.78,8.71,28,79s121,42,128-27C251,168.14,245.2,151.23,236.54,141Z"/><path class="cls-2" d="M120.29,173.64s40.59-27.37,116.25-32.6a52.39,52.39,0,0,0-13.25-11.4l-43.22,4.29-52.78,8.71Z"/><path class="cls-3" d="M222.29,179.64s-19-17-32,5"/><path class="cls-4" d="M164.52,211.44c-.84.25-1.69.47-2.56.64h0a29,29,0,0,1-32.34-39.8l-.33.36a28.22,28.22,0,0,1,14.91-15.36l-.13-.29c27.74-15.45,63.58-19.94,86.28-21h0a10.27,10.27,0,0,0,3.9-16.23,102,102,0,0,0-179,66.88c0,2.1.07,4.18.2,6.26h0c.15,62.45,58.74,132.64,86.95,169.68a18.63,18.63,0,0,0,26.1,3.51,18.89,18.89,0,0,0,3.77-3.86c52.77-72.49,74-104.42,82.08-140.27a12.54,12.54,0,0,0-9.16-15C216.21,199.88,175.1,208.88,164.52,211.44Z"/><rect class="cls-5" x="86.38" y="283.9" width="14.03" height="23.38"/><rect class="cls-5" x="59.33" y="300.26" width="13.98" height="23.29" transform="translate(-249.95 271.16) rotate(-70.66)"/><rect class="cls-5" x="108.23" y="307.29" width="23.38" height="14.03" transform="translate(-77.93 42.23) rotate(-15.14)"/><rect class="cls-5" x="101.96" y="328.33" width="14.03" height="23.38" transform="translate(-198.93 159.23) rotate(-41.81)"/><rect class="cls-5" x="66.96" y="332.23" width="23.38" height="14.03" transform="translate(-225.08 168.89) rotate(-47.66)"/><path class="cls-6" d="M93.79,263.64a56.5,56.5,0,1,0,56.5,56.5h0A56.51,56.51,0,0,0,93.79,263.64Zm-.39,88.84a31.92,31.92,0,1,1,.07,0Z"/><circle class="cls-7" cx="93.4" cy="320.53" r="21.04"/><circle class="cls-8" cx="93.4" cy="321.53" r="5.46"/><path class="cls-9" d="M50.77,224.17A114.52,114.52,0,0,1,223.29,91.53l31-62.89c-28-19.9-72.08-33.49-111-27-84,14-137,80-143,160-2.11,28.08,7.87,56.71,13,73Z"/><path class="cls-10" d="M906.69,229.45l-38.8,22.28c-9.72-13-23.24-18.33-38.87-18.64a48.27,48.27,0,0,0-29.08,8.5c-17.05,11.8-24.32,35.06-17.76,56.88,6.08,20.24,23.32,32.79,45.88,33.41s37.73-7.24,43.43-23.24h-42.2V269.25h89.47c6.49,56.26-21.25,95.28-68.59,104.82-41.56,8.38-83.84-9.78-104.07-45.19-20-35-14.52-81.46,13.1-111.51,37.17-40.47,106.4-38.72,141.38,3.62C902.62,223.52,904.41,226.31,906.69,229.45Z"/><path class="cls-10" d="M1254.23,254.2V192.4h42.12v179h-42c-.15-3-.3-6-.45-9.06-.46-.11-1-.44-1.21-.28-28.1,22.4-66.19,16.11-84.57-15-15.31-25.9-15-52.78-.12-78.94C1184.53,239.17,1226.68,228.87,1254.23,254.2Zm-53.94,53.37c0,16.52,10.75,28,26.53,28.12,16,.16,27.29-11.62,27.18-28.26-.1-16.32-11.28-27.83-27-27.78S1200.35,291.1,1200.29,307.57Z"/><path class="cls-10" d="M1096.39,371.58c-.23-3.36-.43-6.33-.65-9.58-28.67,19.52-58.25,17.27-79-5.75a65.89,65.89,0,0,1-16.45-36c-3.2-23.71,1.5-45.25,18.37-63.21,18.75-20,55-24.55,77-3,.26-3.89.46-7,.69-10.39h42V371.58Zm-54-63.73c.06,16.41,11.06,27.82,26.84,27.83s26.78-11.46,26.85-27.85c.07-16.7-11.23-28.4-27.2-28.18-15.8.22-26.59,11.71-26.53,28.2Z"/><path class="cls-11" d="M338.84,192c16.05,0,31.41-.15,46.76.26,1.44,0,3.52,3.44,4.06,5.6,8.17,32.66,16.13,65.37,24.15,98.07.53,2.16,1.14,4.29,2.21,8.3,1.32-4,2.2-6.29,2.88-8.69,9.1-32.18,18.34-64.33,27.1-96.6,1.54-5.7,4.06-7.43,9.66-7.09a210.73,210.73,0,0,0,22.76,0c4.62-.23,6.58,1.32,7.83,5.85,9.11,32.89,18.51,65.69,27.84,98.51.6,2.11,1.29,4.18,2.57,8.27,2.6-10.28,4.75-18.63,6.82-27,6.59-26.63,13.26-53.25,19.62-79.94,1-4.33,2.8-5.75,7.17-5.68,14.23.24,28.46.09,43.6.09-3.5,12.64-6.7,24.21-9.92,35.78-12.72,45.78-25.58,91.53-38,137.39-1.57,5.77-4.09,7.19-9.61,7-11.83-.4-23.67-.33-35.5,0-4.43.12-6.06-1.44-7.21-5.63-8.09-29.23-16.48-58.38-24.78-87.55-.59-2.08-1.25-4.15-2.44-8-9.85,34.68-19.22,67.65-28.74,101.11-15.27,0-30.42.19-45.55-.26-1.64,0-4-3.52-4.63-5.79-9.2-32.43-18.2-64.87-27.29-97.34q-9.61-34.45-19.25-68.92C340.29,197.45,339.69,195.13,338.84,192Z"/><path class="cls-12" d="M635.7,329.1c5.22,6.62,11.11,9.07,17.82,9,12.29-.13,23.24-3.62,31.43-13.61,1.07-1.31,3.85-2.48,5.31-2,10.62,3.36,21.1,7.15,32.1,11a49.06,49.06,0,0,1-16.3,22.72c-20.77,16.4-44.36,22.72-70.34,17-27.81-6.18-47.6-31-49.84-61-2.19-29.67,13.41-55.57,39.87-66.57,42.74-17.62,84.52,4.45,93.48,49.38,1.93,9.65,1.93,9.65-7.48,12.33l-68.26,19.52Zm-8.21-29.2,45.52-13c-6.27-10.24-16.66-13.8-28.08-10.11s-18,12.29-17.44,23.11Z"/><path class="cls-10" d="M980.77,184.64v187H938.93v-187Z"/></g></g></svg>