<svg id="parking-sign" xmlns="http://www.w3.org/2000/svg" width="18.3" height="18.713" viewBox="0 0 18.3 18.713">
  <g id="Group_24" data-name="Group 24">
    <path id="Path_33" data-name="Path 33" d="M21.141,14.98a4.019,4.019,0,0,0-.951.09v2.993a3.579,3.579,0,0,0,.771.06c1.218,0,1.97-.617,1.97-1.654C22.931,15.536,22.284,14.98,21.141,14.98Z" transform="translate(-12.149 -8.858)"/>
    <path id="Path_34" data-name="Path 34" d="M16.59,0H2.723A2.216,2.216,0,0,0,.506,2.217V16.5a2.216,2.216,0,0,0,2.217,2.216H16.59A2.216,2.216,0,0,0,18.806,16.5V2.217A2.216,2.216,0,0,0,16.59,0Zm.851,16.141a1.205,1.205,0,0,1-1.206,1.206H3.052a1.206,1.206,0,0,1-1.206-1.206V2.6A1.206,1.206,0,0,1,3.052,1.392H16.234A1.206,1.206,0,0,1,17.44,2.6V16.141Z" transform="translate(-0.506)"/>
    <path id="Path_35" data-name="Path 35" d="M19.5,5.507H6.243a.358.358,0,0,0-.358.357V19.482a.358.358,0,0,0,.358.357H19.5a.358.358,0,0,0,.358-.357V5.864A.357.357,0,0,0,19.5,5.507Zm-3.576,7.8A4.82,4.82,0,0,1,12.547,14.4a6.174,6.174,0,0,1-.8-.046v3.719H9.436V7.831A19.14,19.14,0,0,1,12.6,7.615a4.97,4.97,0,0,1,3.169.832,3.033,3.033,0,0,1,1.107,2.4A3.312,3.312,0,0,1,15.922,13.311Z" transform="translate(-3.733 -3.304)"/>
  </g>
</svg>
