<svg xmlns="http://www.w3.org/2000/svg" width="18.276" height="17.478" viewBox="0 0 18.276 17.478">
  <path id="star-four" d="M10.021,1.6l2.061,4.177a.984.984,0,0,0,.741.538l4.609.67a.984.984,0,0,1,.546,1.679L14.643,11.91a.984.984,0,0,0-.283.871l.787,4.591a.984.984,0,0,1-1.428,1.038L9.6,16.242a.985.985,0,0,0-.916,0L4.558,18.41A.984.984,0,0,1,3.13,17.372l.787-4.591a.984.984,0,0,0-.283-.871L.3,8.659A.984.984,0,0,1,.844,6.98l4.609-.67A.984.984,0,0,0,6.2,5.772L8.256,1.6A.984.984,0,0,1,10.021,1.6Z" transform="translate(0 -1.047)" fill="#ffc244"/>
</svg>
