<svg xmlns="http://www.w3.org/2000/svg" width="21.591" height="20.685" viewBox="0 0 21.591 20.685">
  <path id="star-three" d="M11.276,1.664l2.319,4.7a1.107,1.107,0,0,0,.834.606l5.187.754a1.107,1.107,0,0,1,.614,1.889L16.476,13.27a1.107,1.107,0,0,0-.318.98l.886,5.166a1.108,1.108,0,0,1-1.607,1.168L10.8,18.145a1.109,1.109,0,0,0-1.031,0L5.129,20.584a1.108,1.108,0,0,1-1.607-1.168l.886-5.166a1.107,1.107,0,0,0-.318-.98L.336,9.612A1.107,1.107,0,0,1,.95,7.723L6.137,6.97a1.107,1.107,0,0,0,.834-.606l2.319-4.7A1.107,1.107,0,0,1,11.276,1.664Z" transform="translate(0.513 -0.547)" fill="#118fa8" stroke="#707070" stroke-width="1"/>
</svg>
