<svg id="travel" xmlns="http://www.w3.org/2000/svg" width="128.629" height="128.629" viewBox="0 0 128.629 128.629">
  <path id="Path_5" data-name="Path 5" d="M64.315,128.629A64.315,64.315,0,1,0,0,64.315,64.439,64.439,0,0,0,64.315,128.629Z" fill="#ff757c"/>
  <path id="Path_6" data-name="Path 6" d="M86.352,127.644a56.92,56.92,0,0,1,56.921,56.921,57.883,57.883,0,0,1-.3,5.845,64.335,64.335,0,0,1-113.248,0,57.544,57.544,0,0,1-.3-5.846A56.92,56.92,0,0,1,86.352,127.644Z" transform="translate(-22.037 -95.576)" fill="#0e7886"/>
  <path id="Path_7" data-name="Path 7" d="M125.885,173.4a56.878,56.878,0,0,1,20.506,34.585,4.964,4.964,0,0,1-.523-1.122,11.276,11.276,0,0,1-2.46.613l-.058.08c-.522.744.027.429-.891,1.2-1.092.919-1.8,2.173-3.024,2.917a20.276,20.276,0,0,1-.219,3.138c-.128.57-.766,2.1-1.513,1.985a15.345,15.345,0,0,1-1.476-3.211,26.28,26.28,0,0,1-1.148-3.371c-.164-.716-.274-2.087-.437-2.569-.783.116-.748.614-1.5.088-.528-.381-.29-.613-.584-1.183-.619-.584-1.257-1.167-1.894-1.751-.493-.16-2.388.116-3.191.029-1.439-.132-1.565-.044-2.422-1.2-1.514.074-1.386.642-2.863-.628-.965-.817-.783-2.13-2.186-1.387-.053,1.2.529,1.461,1.057,2.014.382.424.856.715,1.056,1.283.019.016.11.555.129.628,1.367.088,1.694-.568,2.441-1.122.73.685.019.8,1.076,1.341.838.425.674.176,1.219.861.274.919-1.875,3.415-2.588,3.867-.546.35-.837.146-1.33.552-.729.615.092.527-1.184.993-1.367.5-2.717,1.547-4.155,1.635-.31-.848-.62-1.707-.93-2.568-.912-2.933-.875-1.795-1.806-3.313-.437-.658-.255-1.08-.546-1.664-.2-.437-.509-.628-.784-1.166-.419-.832-.91-2.13-1.876-2-.2.656.892,2.874,1.165,3.414s.711.774.839,1.548c.182,1.064-.036.932.546,1.647,1.222,1.472-.055,1.211,1.841,2.655,1.42,1.082,1.057,1.4,1.658,2.847.93.261,3.7-.977,4.171-.613.565,1.006-.654,2.611-.964,3.487-1.021,2.933-2.807,2.89-4.174,5.137a21.114,21.114,0,0,0-1.786,2.832c-.784,1.649,1.585,6.216.165,8.13-.31.436-1.312.7-2.569,2.028-1.331,1.444.036,1.2-.475,3.6-.4.555-.892.584-1.384.979a10.273,10.273,0,0,1-.347,1.721c-.328.846-.382.393-.857,1.08a10.04,10.04,0,0,1-.71,1.254,5.089,5.089,0,0,1-.855.876c-1.586,1.46-4.994,1.5-5.285,1.3-.8-.685-.255-.86-.455-1.823a8.1,8.1,0,0,0-1.019-2.209l-.038-.067a5.031,5.031,0,0,1-.437-.92c-.657-2.072-.419-3.646-1.566-5.748-1.44-2.715.8-4.13.709-5.663-.036-.408-.181-.657-.219-.978-.273-1.693-.435-3.21-1.565-4.538-1.24-1.444-1.076-.934-.675-3.312.509-2.729-.656-2.029-2.3-2.1-.8-2.48-2.371-1.271-3.937-.54-.985.451-1.348-.131-2.461.029-2.479.335-.528,1.4-3.846-1.225-1.386-1.1-.456-.541-1.275-1.912a20.218,20.218,0,0,0-1.5-1.65c-1.257-1.576.238-3.167.019-4.976-.383-3.357-.93-.439.948-4.5.985-2.16,2.479-2.173,2.863-3.138.328-.86.109-1.474.729-2.262.546-.642,1.331-.51,1.641-1.518.437-1.24-.4-1.4-1.312-1.431-.382-1.3-.382-.978-.092-2.175.165-.672.019-.993.165-1.664.364-1.678,3.226-.014,4.046-.7a1.95,1.95,0,0,0,0-2.1c-.457-.686-1.057-.6-1.367-1.254.693-.467.182-.058.783-.19.71-.16.619-.366,1.457-.525.748-.147,1.223-.832,1.951-1.3,1.039-.672.546-1.272,1.8-1.474,2.023-.351.71-.292.931-2.176.309-.116.6-.249.891-.379.638.832-.164.5.6,1.05.2-.116.437-.232.657-.348-.11-.906-.528-.731-.8-1.853-1,.16-1.367,1.006-2.169.7-.783-.291-.82-1.416-.783-2.35.291-.7,1.749-1.079,2.313-1.255.913-.306.784-.919,1.622-1.752,1.094-1.094.291.015.82-1.4,1.2-.045.638-.088,1.348-.452l.036-.014.073-.03c.42-.19.966-.233,1.513-.422a4.94,4.94,0,0,1,4.282.261c1.13.468,4.538.482,4.793,1.913-.819.859-1.6.232-2.788.306.218,1.108.309,1.108,1.312,1.414.165-.526-.073-.32.2-.657.328.073.657.131.984.191.33-1.124.711-.963,1.824-1.1-.183-.774-.384-.555.035-1.167,1.15.118.219.016.784.935.8-.1,1.586-.993,2.7-1.109.693-.073.657.19,1.64.087.8-.087.765-.379,1.569-.043.29-.541,0-.527.71-.657,1.092-.19,2.041.48,3.1.628-.782-.962-1.53-.774-.564-2.379,1.221-.248,1.33-.073,1.859.847a7.129,7.129,0,0,0,.576-.424Zm-61.3,78.721h0q-2.844-1.243-5.538-2.747a2.444,2.444,0,0,1-.059-.249c-.273-1.621.42-1.8-.347-4.5-.5-1.786-.3-6.016-.832-8.185a3.469,3.469,0,0,0-.316-.863c-.492-.816-1.7-1.2-2.66-1.853a.159.159,0,0,1-.109-.058c-1.331-.934-2.589-4.6-3.646-5.968-.491-.658-.8-.367-1.02-1.4-.237-.948.128-.787.439-1.577-1.622-2.976,2.1-2.933,1.331-6.509a4,4,0,0,0-1.039-1.866c-.766.335-.4.523-.8,1.166-.619-.35-1.238-.7-1.839-1.05-1.877-1.81-.876-.5-1.4-1.679-1.13-2.481-2.207-1.093-3.555-2.32-.6-.512-.711-1.315-1.713-1.167-1.513.2-.675.437-2.242-.294a15.37,15.37,0,0,1-3.646-2.2c-.036-1.313.439-1.373-.382-2.6a6.646,6.646,0,0,0-.475-.641A56.858,56.858,0,0,1,51.951,175.8a6.281,6.281,0,0,0,2.193.052c.236-.437.382-.818.8-.978a1.667,1.667,0,0,1,.637-.058c.036.217.092.437.146.656,0,.016.037.161.019.132.019-.03.036.087.053.13,1.15-.671.183-.686.8-1.9-.965-.19-.838-.074-1.44-.687a3.342,3.342,0,0,1,2.552-.8c-.056.585-.328.57-.108,1.065.656-.408,1.112-1.5,2.168-1.3.2.145.439.277.657.409-.548.51-1.367.541-2.077.832-.311,3.168,1,.512.564,2.686a2.41,2.41,0,0,0,1.84-1.211c-.291-.379-.711-.379-.947-.832a2.09,2.09,0,0,1,1.13-1.289,3.094,3.094,0,0,1,1.331-.273c5.795.044,3.042.306,4.829,1.124.4.174,1.11.263,1.348.613.364.555.019,1.079.6,1.518.51.379.584-.015,1.258.833a1.258,1.258,0,0,1-1.2.992c-.984.014-.4-.658-1.459-.555.02.991,1,1.371.09,1.911-.8.483-.292-.174-.892.161-.019.015-.073.044-.09.059a.488.488,0,0,0-.092.1c-.108.117-.2.219-.29.323-1.457-.4-1.184-.219-2.06-1.183-.327-.364-.382-.452-.965-.408-.364.014-.838.174-1.185-.146.711-.89,1.058-.029,2.1-.556a13.417,13.417,0,0,0,1.513-1.183c-.31-.7-.037-.118-.491-.57-1.021-1.035-1.315-.774-2.7-.774a9.519,9.519,0,0,1-1.84,2.074,1.691,1.691,0,0,1-1.6.014c.31,1.256,1.112.292,1.184,1.809-.528-.1-.8-.366-1.348-.175-1.167.437-.128.393-.037.628,0,.015.546.073,0,.277-.6.218-.092-.117-1.257-.8.164-.291.328-.6.492-.9a24.109,24.109,0,0,0-3.243,1.3,14.624,14.624,0,0,0-3.154,2c-.019,1.1.182.364.292,1.665,1.694.1,1.148.61,2.843,1.093.326.089.747.176,1.258.263,0,.818-.73,1.431-.221,2.278,1.185.83,1.221-.789,1.513-1.824,4.011-.838,2.078-2.017,3.114-4.224a4.92,4.92,0,0,1,.694-1.061c.309.015,1.566.147,1.84.2.912.16.42.379,1.4.817-.019.789-.419,1.81.747,1.621.893-.159.694-.861,1.786-1.036a10.266,10.266,0,0,1,.583,3.036c2.625,1.022,1.457,1.853.947,3.767.33.16.674.306,1.021.451-.017.555-.037,1.1-.055,1.636-.055,0-2.808-.6-2.989-.657.419-1.2,1.185-1.211,1.677-2.437-.984.174-.912.48-1.622.7a10.44,10.44,0,0,1-1.8.146c-.237.787-.019-.687.056.319.036.381.219.016-.037.424-.912-.424-.6-1.416-2.3-.5.383.175.765.335,1.166.5-.053,1.122-.145.276-.382,1.021-.584,1.911,1.585.729,2.15.628-.146,1.007-.766,1.007-1.641,1.283-.964.292-1.257.687-2.023.862,0-1.2-.181-.19.346-1.021a6.827,6.827,0,0,0-2.06.73l-.072.028c-.936.382-1.078.439-1.186,1.635a5.418,5.418,0,0,0-2.3,1.11c-.564.54-1.13,1.078-1.678,1.6-.053.044-.092.088-.125.117.2,1.5,0,1.532-.913,2.118a9.955,9.955,0,0,0-1.73,1.108c-2.278,2.043-1.184,1.093-1.058,4.611-.473-.145-.928-.306-1.366-.467-.347-2.336.126-1.561-1.75-2.1-2.024-.584-1.751.408-2.589.584-.93.2-1.386-.847-2.734.029-.746.509-1.457.846-1.64,1.75a10.961,10.961,0,0,0-.638,3.109c.129,3.285,3.117,3.473,3.882,1.941.509-1.021.383-1.576,2.041-1.313a4.065,4.065,0,0,1-.311,2.19c-.145.393-.546,1.108-.346,1.65,1.185.482,1.221-.425,2.788.51.11,1.561-.71,3.312.492,4.217.928.686.984.073,1.8-.072.912-.16.748.409,1.587.541.473-.585.273-.218.584-.935.546-1.238.692-.656,1.986-1.413.126-.073.236-.147.364-.234.145.306.31.6.454.89.948-1.123,1.057-.029,2.151.277a4.29,4.29,0,0,0,1.064.179c.795.012.876-.375,1.961.009a3.435,3.435,0,0,0,.439.147c.017,0,.072.029.072.059.02.015.073.058.092.074a4.3,4.3,0,0,1,.347.627c.747.715,1.495,1.431,2.223,2.13,1.439.57,1.439-.5,3.08,1.093.693.657.382.644.765,1.489.056.132.165.262.237.424.146.394.31.773.475,1.152.746.978,1.767.366,2.806,1.373.6.584.146.408,1.476.642,2.06.335,1.259.146,2.826,1.328.6.437.746.189,1.311.569a2.7,2.7,0,0,1-.072,3.24c-2.024,2.947-1.331,2.466-1.423,4.8-.073,1.341-.456,4.115-1.714,4.45-4.573,1.286-1.913,2.176-3.115,4.437-.346.643-.6.8-.82,1.315-.91,2.129-.273,2.845-2.971,2.364a6.53,6.53,0,0,0,.347.553c.8,1.24.93,2.176-.711,2.48-1.367.263-.783,0-.911,1.518-.529.219-.766,0-1.112.35l.129.24ZM52.576,175.241h0c.353-.046.351-.2,1.275-.424a.854.854,0,0,0-.2-.422l-.029-.058c-.351.3-.7.6-1.046.905Zm48.713,16.923h0l-.036-.026a2.986,2.986,0,0,1-.363-.276c-.8-.716-.968-1.356-1.859-1.2a1.271,1.271,0,0,0,.4,1.138c1.239,1.547.856,1.022,1.822,1.591l.036.021a10.2,10.2,0,0,1,.856.578c-1.239,1.092-.09,1.209-.856,1.575l-.036.017a1.779,1.779,0,0,0-.2.087c-.257-.643.309-.335-.347-1.269a2.811,2.811,0,0,0-1.275-.892c-1.423-.671-1.239-1.2-2.114-2.071-.985.03-.765.336-1.457.687-.838.407-.71-.072-1.7.014-.8,1.417.346.234-1.112,1.4-1.75,1.356-.31,2.772-3.116,3.2a1.8,1.8,0,0,0-.473.072c-.53.189-.221.029-.53.335.238.556-.09.467.857.6,1.731.232,1.951-.832,3.208-1.1a40.365,40.365,0,0,1,4.774-.219c.838.935.146,1.592.146,2.379.913.482,2.206.6,2.735,1.1.6.569.31.48.6.583l.036.012c.11.031.269.088.548.194a4.066,4.066,0,0,0,1.475.451c.711-2.379-.019-2.13,3.408-1.037,3.572,1.17,1.968.1,3.481.263.748.074.548.306,1.586.175.2-.408,1.675-4.116-.238-3.648-.565.145-.181.349-.984.145-.838-.217-.036-.378-.964-.248-.913.132-2.005.935-2.717-1.823-.273-.993-.766-1.853-1.895-.352.291.511.492.555.819,1.051a6.8,6.8,0,0,1-.509.628c-.619.613.257.321-.747.451-.546-.409-.436-.934-.965-1.663-.93-1.359-.328-.73-.8-2.029a13.874,13.874,0,0,0-1.5-.893h0Zm19.464,39.289h0c-.8.408-.911,1.344-1.512,1.868-.656.6-1.532.323-1.786,1.431-.328,1.385.546.963-.419,2.772a3.231,3.231,0,0,0,.165,2.846c1.584,1.53,2.441-2.335,2.806-3.546.274-.861.529-1.838.82-2.642C121.118,233.321,121.538,232.563,120.753,231.452Zm-2.624-40.716h0c.128,1.782,1.184,2.467,1.932,3.284-.09.847-.292.628-.274,1.809a2.815,2.815,0,0,0,2.717.717c.164-1.431-.292-1.359-.729-2.336a1.519,1.519,0,0,1,.309-.291c.33-.437.165.174.33-.57-.856-.276-2.242-1.153-2.35-2.3.419-.335.291-.132.6-.335.674-.439.165.232.565-.512-.346-.671-.729-.788-1.566-.452a11.029,11.029,0,0,0-1.532.992Zm-7.454.468h0c-.564-.787-.529-1.183-1.622-1.211a5.528,5.528,0,0,0-1.184,1.882c-.364,1.08-.109.335-.073,1.5a.387.387,0,0,0,0,.146c-.019.7-.183-.132-.073.51.857-.176.2-.161.84-.366a9.814,9.814,0,0,1,2.971-.627c1.257.291,2.314,1.285,3.736.291-.074-1.269-1.6-1.751-2.662-2.307.056-1.166.364-.247.291-1.371a1.817,1.817,0,0,0-.93.073c-.82.364-.364.468-.364.6.036.627.82-.131-.017.643a1.666,1.666,0,0,1-.912.233Zm-21.287-8.843h0c-.035,2.044.675,1.356,1.348,2.365-.309.861-.364.19-.709,1.079-.31.745.072.074-.129,1.371a19.041,19.041,0,0,0,2.005-.218c.985-.088.965-.175,1.312-1.183-.546-.671-1.093-1.343-1.658-2.013-.712-1.082,0-.336-.218-1.242-.164-.321-.311-.641-.456-.963A2.708,2.708,0,0,0,89.388,182.361Z" transform="translate(-26.008 -128.855)" fill="#15bdb1"/>
  <path id="Path_8" data-name="Path 8" d="M370.93,188.526l-.551-.551-2.272-2.272-.551-.551c-1.793.68-4.037,3.619-4.922,5.474l.275.276,2.272,2.272.276.276c1.854-.887,4.793-3.13,5.474-4.922Z" transform="translate(-271.529 -138.637)" fill="#fbb429"/>
  <path id="Path_9" data-name="Path 9" d="M381.751,188.526l-.551-.551-2.272-2.272-.551-.551a4.933,4.933,0,0,0-1.292.791l3.874,3.874a4.931,4.931,0,0,0,.791-1.29h0Z" transform="translate(-282.351 -138.637)" fill="#fff"/>
  <path id="Path_10" data-name="Path 10" d="M386.075,231.531l-.551-.551-2.272-2.272-.551-.551c-1.793.68-4.037,3.619-4.922,5.474l.276.276,2.272,2.272.276.276c1.854-.887,4.793-3.13,5.474-4.923Z" transform="translate(-282.869 -170.837)" fill="#fbb429"/>
  <path id="Path_11" data-name="Path 11" d="M396.9,231.536l-.551-.55-2.272-2.273-.551-.55a4.873,4.873,0,0,0-1.292.791l3.874,3.874a4.893,4.893,0,0,0,.791-1.292h0Z" transform="translate(-293.691 -170.842)" fill="#fff"/>
  <path id="Path_12" data-name="Path 12" d="M272.66,90.26l.551.551,2.272,2.272.551.551c-.68,1.793-3.619,4.037-5.474,4.923l-.276-.276-2.272-2.272-.276-.276c.887-1.853,3.13-4.793,4.922-5.474Z" transform="translate(-200.474 -67.584)" fill="#fbb429"/>
  <path id="Path_13" data-name="Path 13" d="M283.485,90.26l.551.551,2.272,2.272.551.551a4.859,4.859,0,0,1-.791,1.292l-3.875-3.875A4.858,4.858,0,0,1,283.485,90.26Z" transform="translate(-211.298 -67.584)" fill="#fff"/>
  <path id="Path_14" data-name="Path 14" d="M229.654,75.117l.551.551,2.272,2.272.551.551c-.68,1.793-3.619,4.037-5.474,4.922l-.276-.276-2.272-2.272-.276-.276c.887-1.853,3.13-4.793,4.922-5.474Z" transform="translate(-168.272 -56.245)" fill="#fbb429"/>
  <g id="Group_11" data-name="Group 11" transform="translate(40.764 17.306)">
    <path id="Path_15" data-name="Path 15" d="M240.479,75.12l.551.551,2.273,2.272.55.551a4.884,4.884,0,0,1-.79,1.292l-3.875-3.875A4.847,4.847,0,0,1,240.479,75.12Z" transform="translate(-219.861 -73.553)" fill="#fff"/>
    <path id="Path_16" data-name="Path 16" d="M174.806,121.672l6.666,9.478,2.126-2.57-3.772-9.966a19.944,19.944,0,0,0,1.531-1.351c1.947-1.752,10.5-9.617,18.251-15.917l22.317,31.548,2.035-2.035L211.625,91.537c5.042-4.156,8.943-7.472,9.994-8.673,3.213-3.671,6.12-8.568,3.826-13.157-4.59-2.3-9.486.613-13.157,3.824-1.2,1.051-4.516,4.952-8.673,9.994L164.293,71.19l-2.035,2.035,31.547,22.317c-6.3,7.75-14.165,16.3-15.916,18.252a19.373,19.373,0,0,0-1.351,1.53l-9.966-3.772L164,113.678l9.478,6.666c-1.029,1.771-.443,2.357,1.327,1.327h0Z" transform="translate(-162.258 -68.885)" fill="#fff"/>
  </g>
  <g id="Group_12" data-name="Group 12" transform="translate(40.763 20.861)">
    <path id="Path_17" data-name="Path 17" d="M212.205,277.528l6.666,9.478.513-.62-6.462-9.353-.716.494h0Z" transform="translate(-199.656 -228.296)" fill="#c8cacc"/>
    <path id="Path_18" data-name="Path 18" d="M169.815,245.141l-.62.513,9.478,6.666.494-.716-9.354-6.463Z" transform="translate(-167.451 -204.416)" fill="#c8cacc"/>
    <path id="Path_19" data-name="Path 19" d="M310.931,194.884l22.317,31.548.784-.786-21.784-31.838Z" transform="translate(-273.579 -165.979)" fill="#c8cacc"/>
    <path id="Path_20" data-name="Path 20" d="M163.037,83.036l-.784.786L193.8,106.139l1.076-1.318-31.84-21.784Z" transform="translate(-162.253 -83.036)" fill="#c8cacc"/>
  </g>
  <path id="Path_21" data-name="Path 21" d="M390.02,76.3a3.877,3.877,0,0,0-1.6-.958l-.368,1.027a5.516,5.516,0,0,1,1.905,1.9l1.027-.368a3.893,3.893,0,0,0-.958-1.6h0ZM387.6,75.168h0a6.291,6.291,0,0,0-2.981.426,5.827,5.827,0,0,1,2.684.4Zm2.732,3.856h0a5.812,5.812,0,0,1,.4,2.684,6.274,6.274,0,0,0,.426-2.981Z" transform="translate(-287.988 -56.256)" fill="#15bdb1"/>
  <path id="Path_22" data-name="Path 22" d="M140.654,288.765l.008-.008.135-.13.133-.129.136-.131.136-.131.136-.131.137-.132.137-.132.138-.132.139-.133.138-.133.139-.135.139-.136.14-.136.14-.137.141-.137.143-.137.143-.138.143-.138.144-.139.144-.14.145-.14.145-.14.145-.142.146-.143.146-.143.147-.144.147-.144.148-.145.148-.146.148-.146-.83-.845-.148.145-.147.145-.147.144-.147.145-.146.143-.145.143-.145.142-.145.141-.144.14-.144.139-.144.139-.143.139-.143.138-.143.138-.141.137-.141.137-.14.136-.14.135-.139.136-.139.135-.139.133-.138.133-.138.132-.137.132-.137.131-.137.131-.136.131-.135.13-.135.131-.135.129-.008.008.822.853ZM207,288.276h0l-.14.367-.14.362-.14.356-.14.35-.141.346-.142.34-.141.335-.141.33-.142.325-.143.319-.141.316-.143.31-.143.3-.143.3-.007.014,1.064.521.011-.021.146-.307.146-.312.145-.317.146-.321.145-.326.145-.332.145-.336.144-.342.144-.346.145-.353.143-.358.144-.362.143-.368.143-.374-1.107-.42Zm-3.64,7.763h0l-.073.121-.145.239-.145.234-.145.231-.146.225-.146.221-.146.217-.146.212-.146.209-.146.2-.146.2-.147.2-.146.193-.147.188-.147.184-.148.181-.147.176-.147.173-.147.168-.148.166-.147.161-.148.158-.148.154-.148.151-.026.026.83.846.036-.036.159-.161.158-.165.158-.168.158-.172.157-.175.157-.179.156-.183.156-.187.156-.191.156-.194.154-.2.154-.2.154-.205.153-.21.153-.215.153-.218.152-.223.153-.226.151-.231.152-.234.151-.239.152-.244.151-.248.072-.122-1.015-.61Zm-6.143,6.719h0l0,0-.152.092-.152.089-.152.086-.152.084-.153.081-.152.078-.153.077-.153.073-.153.071-.153.069-.154.066-.154.064-.154.062-.154.06-.156.057-.155.056-.156.053-.155.051-.157.05-.157.047-.158.045-.157.044-.158.041-.158.039-.159.037-.159.036-.159.034-.16.032-.16.03-.16.029-.161.028-.161.026-.161.024-.163.023h-.009l.151,1.175.02,0,.174-.024.173-.026.172-.028.173-.029.173-.031.173-.032.172-.035.172-.037.171-.038.172-.041.172-.043.172-.045.172-.047.169-.049.171-.051.169-.053.169-.056.171-.058.169-.06.168-.062.169-.065.168-.067.168-.07.168-.073.168-.075.167-.078.167-.08.167-.082.167-.086.167-.088.166-.092.166-.094.166-.1.165-.1,0,0-.619-1.009Zm-8.791,2.034h-.19l-.172,0-.172,0-.173,0-.173,0-.173,0-.174,0-.174-.006-.175-.006-.175-.006-.175-.006-.175-.007-.176-.007-.178-.006-.178-.007-.178-.007-.178-.008-.178-.007-.179-.007-.179-.007-.18-.007-.18-.007-.18-.007-.181-.007-.181-.007-.182-.007-.182-.006-.182-.006-.183-.006-.183-.006-.183,0-.184,0-.184,0h-.019l-.021,1.185h.016l.181,0,.181,0,.181,0,.18.006.181.006.181.006.18.006.18.007.18.007.18.007.179.007.179.007.179.007.179.007.179.007.179.007.179.007.179.007.179.007.178.007.178.007.179.007.176.006.178.006.178.006.178,0,.178,0,.178,0,.176,0,.176,0,.176,0,.176,0h.2l0-1.185Zm-9.52-.105h0l-.153.012-.193.016-.195.017-.193.019-.195.02-.195.022-.195.023-.195.024-.2.026-.2.029-.2.03-.2.032-.2.032-.2.036-.2.037-.2.038-.2.041-.2.043-.2.045-.2.047-.2.05-.2.051-.2.052-.2.056-.2.058-.2.06-.2.063-.2.065-.2.067-.2.071-.027.009.4,1.115.016-.006.193-.066.191-.063.191-.062.191-.059.191-.056.191-.056.19-.052.19-.051.19-.049.19-.046.189-.045.189-.042.189-.041.188-.038.188-.037.189-.035.188-.032.188-.032.188-.03.187-.028.188-.027.187-.026.187-.023.187-.022.186-.021.186-.02.187-.019.184-.016.186-.015.153-.012-.093-1.181Zm-9.271,2.7h0l-.158.088-.21.121-.21.124-.21.126-.211.131-.21.133-.211.137-.21.139-.211.144-.211.146-.212.151-.212.154-.211.158-.212.16-.212.165-.212.168-.214.172-.214.175-.214.179-.215.182-.215.188-.214.19-.215.194-.053.05.808.867.045-.041.207-.188.207-.183.205-.179.206-.175.2-.172.206-.168.2-.165.2-.16.2-.157.2-.154.2-.151.2-.146.2-.143.2-.14.2-.136.2-.133.2-.13.2-.126.2-.123.2-.121.2-.117.2-.115.158-.088-.586-1.03Zm-7.4,6.155h0l-.021.022-.218.248-.212.244-.212.24-.212.238-.211.234-.211.232-.211.229-.21.225-.21.223-.209.221-.209.217-.209.215-.208.211-.208.209-.208.206-.206.2-.207.2-.206.2-.205.195-.039.036.806.867.044-.041.211-.2.211-.2.211-.2.211-.208.212-.211.212-.214.212-.217.214-.218.214-.222.215-.224.214-.227.215-.231.215-.233.216-.236.216-.239.216-.242.217-.245.217-.247.211-.241.021-.022-.887-.786Zm-6.694,6.536h0l-.143.113-.2.154-.2.152-.2.15-.2.147-.2.145-.195.141-.195.139-.195.137-.194.135-.194.132-.194.13-.193.128-.191.125-.191.122-.191.12-.19.118-.19.115-.19.113-.188.11-.188.108-.188.106-.187.1-.187.1-.186.1-.089.046.543,1.054.1-.051.195-.1.195-.106.195-.108.2-.111.2-.113.2-.115.2-.118.2-.12.2-.122.2-.125.2-.126.2-.13.2-.132.2-.135.2-.137.2-.139.2-.142.2-.145.2-.147.2-.15.2-.152.2-.154.205-.158.2-.16.141-.113-.732-.932Zm-8.02,4.55h0l-.156.051-.174.056-.174.053-.173.052-.172.05-.172.047-.171.045-.171.044-.169.042-.168.039-.168.037-.168.036-.167.034-.166.032-.166.03-.166.029-.164.027-.164.024-.164.023-.163.021-.161.02-.161.017-.16.016-.16.014-.16.012-.158.011-.158.008-.158.007-.157.006-.156,0-.154,0h-.309l-.152,0-.059,0-.043,1.184.073,0,.166,0h.333l.168,0,.168,0,.168-.006.169-.007.172-.011.171-.012.172-.013.172-.015.173-.016.174-.02.174-.021.175-.023.174-.024.176-.026.176-.029.178-.031.178-.031.179-.035.179-.036.179-.038.18-.041.181-.043.181-.044.181-.047.182-.049.183-.051.183-.053.183-.055.184-.057.184-.059.156-.051-.366-1.127Zm-8.977.368h0l-.058-.016-.136-.039-.135-.042-.136-.043-.135-.044-.135-.046-.133-.046-.131-.047-.132-.05-.131-.051-.13-.052-.13-.053-.129-.055-.128-.056-.128-.057-.126-.059-.125-.059-.125-.06-.125-.062-.123-.063-.122-.064-.123-.066-.122-.066-.121-.068-.12-.069-.12-.07-.12-.072-.117-.072-.117-.073-.116-.074-.116-.075-.115-.077-.115-.077-.113-.079-.113-.079-.113-.081-.111-.081-.11-.082-.109-.084-.109-.084-.108-.085-.049-.039-.746.92.056.045.116.092.117.09.117.089.12.089.12.088.121.086.122.086.123.085.123.082.124.082.125.081.125.08.126.08.128.078.128.077.13.075.13.074.131.073.132.072.132.071.133.07.135.068.135.066.136.066.137.065.137.063.138.062.139.06.14.059.139.058.141.057.143.056.143.053.144.053.145.051.145.05.146.047.147.047.147.045.148.044.058.016.33-1.138Zm-7.436-5.031h0l-.049-.06-.086-.107-.086-.107-.084-.108-.084-.109-.082-.109-.081-.109-.081-.11-.08-.111-.079-.111-.079-.111-.077-.113-.077-.113-.075-.114-.074-.114-.074-.115-.072-.115-.072-.116-.071-.116-.07-.116-.07-.117-.069-.117-.067-.118-.066-.117-.065-.118-.065-.12-.064-.118-.063-.12-.063-.12-.06-.121-.06-.12-.059-.121-.058-.122-.057-.122-.056-.122-.055-.122-.055-.122-.053-.122-.052-.123-.051-.122-.05-.123-.05-.123-.041-.1-1.1.428.044.113.052.131.053.131.055.131.056.13.056.13.058.131.059.13.06.13.06.129.062.129.063.129.064.129.065.128.065.128.066.126.069.126.069.125.07.126.071.125.072.125.073.124.073.124.075.124.075.123.075.122.078.123.078.122.079.122.08.121.081.12.082.12.084.12.084.118.086.118.086.117.087.117.088.116.088.116.089.115.09.115.092.115.05.06.919-.747Zm-3.817-8.241h0a14.22,14.22,0,0,1,.015-5.649l-1.157-.255a15.38,15.38,0,0,0-.023,6.117l1.165-.215Zm1.138-8.864h0a24.161,24.161,0,0,1,3.191-4.8l-.913-.754a25.065,25.065,0,0,0-3.343,5.042Zm5.521-7.437h0l.008-.008.1-.107.1-.107.1-.107.1-.108.1-.108.1-.108.1-.108.105-.109.106-.109.106-.109.107-.109.108-.11.108-.11.109-.11.109-.11.11-.111.111-.113.111-.113.111-.111.113-.112.113-.113.115-.114.115-.114.115-.114.116-.115.116-.115.117-.115.117-.116.118-.116.118-.116.12-.117.12-.117.121-.117.121-.118.122-.118.122-.118.123-.12.008-.007-.826-.849-.008.008-.123.12-.123.12-.122.118-.122.12-.121.117-.121.118-.12.117-.12.117-.118.117-.118.116-.118.116-.117.116-.116.115-.116.116-.115.115-.115.114-.115.115-.113.114-.113.113-.113.114-.111.113-.111.113-.11.113-.11.111-.109.111-.109.111-.109.111-.108.11-.107.11-.107.11-.106.11-.106.11-.1.109-.1.108-.1.109-.1.109-.1.108-.008.009.863.811v-.006Z" transform="translate(-94.214 -212.494)" fill="#fff"/>
</svg>
