<svg xmlns="http://www.w3.org/2000/svg" width="18.3" height="13.369" viewBox="0 0 18.3 13.369">
  <g id="Wi-Fi" transform="translate(0)">
    <g id="Group_23" data-name="Group 23">
      <path id="Path_32" data-name="Path 32" d="M9.149,92.473a1.671,1.671,0,1,0,1.671,1.671A1.672,1.672,0,0,0,9.149,92.473ZM18.1,86.63A11.673,11.673,0,0,0,.2,86.63a.836.836,0,0,0,1.28,1.075,10,10,0,0,1,15.349,0A.835.835,0,0,0,18.1,86.63Zm-8.954-.842a8.341,8.341,0,0,0-6.4,2.988.836.836,0,0,0,1.28,1.075,6.668,6.668,0,0,1,10.233,0,.836.836,0,0,0,1.28-1.075A8.343,8.343,0,0,0,9.149,85.788Zm0,3.342a5,5,0,0,0-3.838,1.793A.836.836,0,0,0,6.591,92a3.332,3.332,0,0,1,5.116,0,.836.836,0,0,0,1.28-1.075A5,5,0,0,0,9.149,89.131Z" transform="translate(0.001 -82.446)"/>
    </g>
  </g>
</svg>
